<svg xmlns="http://www.w3.org/2000/svg" width="173" height="78.031" viewBox="0 0 173 78.031">
  <metadata><?xpacket begin="﻿" id="W5M0MpCehiHzreSzNTczkc9d"?>
<x:xmpmeta xmlns:x="adobe:ns:meta/" x:xmptk="Adobe XMP Core 5.6-c142 79.160924, 2017/07/13-01:06:39        ">
   <rdf:RDF xmlns:rdf="http://www.w3.org/1999/02/22-rdf-syntax-ns#">
      <rdf:Description rdf:about=""/>
   </rdf:RDF>
</x:xmpmeta>
                                                                                                    
                                                                                                    
                                                                                                    
                                                                                                    
                                                                                                    
                                                                                                    
                                                                                                    
                                                                                                    
                                                                                                    
                                                                                                    
                                                                                                    
                                                                                                    
                                                                                                    
                                                                                                    
                                                                                                    
                                                                                                    
                                                                                                    
                                                                                                    
                                                                                                    
                                                                                                    
                           
<?xpacket end="w"?></metadata>
<defs>
    <style>
      .cls-1 {
        fill: #6ed25b;
        fill-rule: evenodd;
      }
    </style>
  </defs>
  <path id="Forma_38" data-name="Forma 38" class="cls-1" d="M589.353,58.366l2.849,4.87c-2.535,4.308-5.09,8.614-7.608,12.941s-5.017,8.666-7.537,12.912a39.436,39.436,0,0,1-5.594,0,0.493,0.493,0,0,1,0-.221C577.4,78.738,583.342,68.613,589.353,58.366Zm5.12,18.994h30.25c-0.933,1.616-1.832,3.172-2.743,4.747H591.706Zm-6.386-25.193a33.593,33.593,0,0,1,5.621-.105l13.486,23.06a33.339,33.339,0,0,1-5.623.082Q594.859,63.737,588.087,52.167Zm-2.878,36.989h-5.462a1.435,1.435,0,0,1,.309-0.807q1.65-2.879,3.318-5.747c0.833-1.427,1.687-2.842,2.524-4.267,0.7-1.2,1.392-2.4,2.086-3.6,0.655-1.13,1.3-2.263,1.963-3.391q1.151-1.969,2.311-3.931c0.365-.62.731-1.239,1.137-1.927a12.989,12.989,0,0,1,1.465,2.369c0.458,0.778.952,1.535,1.457,2.343Zm12.553-34.574h5.658q5.979,10.25,11.96,20.508a25.531,25.531,0,0,1-5.515.136c-0.119-.169-0.285-0.373-0.417-0.6q-1.633-2.748-3.254-5.5c-0.754-1.289-1.481-2.594-2.231-3.886-0.911-1.566-1.833-3.126-2.75-4.689-0.378-.644-0.76-1.285-1.133-1.931C599.336,57.33,598.6,56.037,597.762,54.582Zm-7.35,29.777h23.83a0.279,0.279,0,0,1,.04.055,0.1,0.1,0,0,1,.013.072q-1.366,2.3-2.74,4.61c-0.6.115-23.009,0.133-23.906,0.008C588.534,87.49,589.422,85.91,590.412,84.359Zm38.4,42.8a34.06,34.06,0,0,1-3.554-4.06,11.233,11.233,0,0,0,.313,3.951,5.167,5.167,0,0,1-1.911.061,34.731,34.731,0,0,0,0-9.059,7.643,7.643,0,0,1,4.009.526,2.333,2.333,0,0,1,1.283,2.07,2.18,2.18,0,0,1-1.177,2.037c-0.2.123-.4,0.24-0.615,0.371a23.307,23.307,0,0,0,3.114,3.927,1.618,1.618,0,0,0,.689-0.765c0.856-1.777,1.7-3.559,2.565-5.334,0.441-.91.9-1.81,1.36-2.711a0.471,0.471,0,0,1,.163-0.1c0.556,1.148,1.119,2.289,1.663,3.44,0.477,1.012.9,2.049,1.406,3.048,0.429,0.852.932,1.667,1.426,2.539a9.389,9.389,0,0,1-1.953.027,9.874,9.874,0,0,0-.937-2.736h-3.373a5.867,5.867,0,0,0-.81,2.68,6.922,6.922,0,0,1-1.815.081C630.035,127.179,629.415,127.163,628.81,127.163Zm-3.341-4.477a4.552,4.552,0,0,0,.648-0.181c0.266-.119.514-0.277,0.725-0.394,0.944-1.22.662-1.728,0.253-2.428a1.642,1.642,0,0,0-1.823-.582A8.406,8.406,0,0,0,625.469,122.686Zm8.295,0.532h2.4a16.49,16.49,0,0,0-1.284-2.686A15.858,15.858,0,0,0,633.764,123.218Zm-85.325,3.924H546.42a9.817,9.817,0,0,0-.991-2.852,9.459,9.459,0,0,1-3.136.009,0.769,0.769,0,0,0-.518.639c-0.178.716-.376,1.427-0.578,2.187h-3.615c-0.562-.6-1.17-1.277-1.8-1.927-0.6-.62-0.967-1.431-1.671-2.133a13.169,13.169,0,0,0,.248,4,6.531,6.531,0,0,1-1.861.065,39.117,39.117,0,0,0,0-8.99,9.152,9.152,0,0,1,2.4-.068c0.262,0.052.527,0.091,0.788,0.148a3.17,3.17,0,0,1,1.819,1.291c0.49,1.395.453,2.359-1.437,3.53a20.046,20.046,0,0,0,3.06,3.99,4.918,4.918,0,0,0,1.083-1.605c0.628-1.234,1.184-2.5,1.776-3.757,0.262-.552.541-1.1,0.813-1.643l1-2.01c0.851,1.522,1.478,3.084,2.235,4.582A36.211,36.211,0,0,0,548.439,127.142Zm-14.223-4.468a2.644,2.644,0,0,0,1.83-1c0.448-1.258.354-1.619-.654-2.477a1.754,1.754,0,0,0-1.347-.106c0,1.072,0,2.155.006,3.239A1.128,1.128,0,0,0,534.216,122.674Zm9.475-2.083a18.669,18.669,0,0,0-1.057,2.469,4.761,4.761,0,0,0,2.211-.028A9.069,9.069,0,0,0,543.691,120.591Zm100.49-8.668a9.72,9.72,0,0,0,.337-2.923c-0.016-2.109,0-4.218,0-6.428l-1-1.251h2.31a12.388,12.388,0,0,0,1.876,2.543c0.728,0.8,1.293,1.743,2.161,2.555a49.976,49.976,0,0,0,3.853-5.153c0.3,0.022.638,0.054,0.972,0.066,0.314,0.012.63,0,1.026,0-0.091.223-.161,0.442-0.267,0.641a3.617,3.617,0,0,0-.431,1.763c0.015,2.136,0,4.272.014,6.408,0,0.314.092,0.626,0.125,0.942,0.026,0.255.028,0.514,0.043,0.812h-2.044a2.111,2.111,0,0,1-.049-0.44c0.043-.448.12-0.893,0.162-1.341,0.056-.607.118-1.215,0.13-1.824,0.02-1.094.006-2.189,0-3.284,0-.181-0.02-0.363-0.037-0.654a2.722,2.722,0,0,0-.408.33c-0.928,1.2-1.846,2.415-2.775,3.617a4,4,0,0,1-.457.43c-1.15-1.351-2.268-2.665-3.388-3.977a0.155,0.155,0,0,0-.078.009,30.42,30.42,0,0,0,.164,7.048,0.486,0.486,0,0,1-.188.1C645.59,111.926,644.945,111.923,644.181,111.923Zm19.851-5.3a5.6,5.6,0,0,1,.731-2.692,5.321,5.321,0,0,1,4.278-2.746,6.521,6.521,0,0,1,2.288.17,4.889,4.889,0,0,1,3.11,2.578,5.666,5.666,0,0,1,.675,2.756,5.261,5.261,0,0,1-1.869,4.071,5.71,5.71,0,0,1-6.874.372,4.735,4.735,0,0,1-1.99-2.805C664.263,107.761,664.148,107.193,664.032,106.625Zm1.855-.385a4.451,4.451,0,0,0,.841,3.015,3.614,3.614,0,0,0,5.8.248,4.972,4.972,0,0,0,.331-4.841,3.773,3.773,0,0,0-3.011-2.243,3.163,3.163,0,0,0-2.545.678A3.484,3.484,0,0,0,665.887,106.24Zm-117.019.332a5.386,5.386,0,0,1,4.352-5.315,5.318,5.318,0,0,1,6.584,4.619,6.1,6.1,0,0,1-.246,2.647,4.991,4.991,0,0,1-3.38,3.261,5.291,5.291,0,0,1-4.649-.4,5.037,5.037,0,0,1-2.449-3.4C549,107.513,548.938,107.041,548.868,106.572Zm1.829-.4a4.6,4.6,0,0,0,1.5,3.82,3.618,3.618,0,0,0,4.644-.009,3.854,3.854,0,0,0,1.2-2.183,4.913,4.913,0,0,0-1.2-4.278,3.336,3.336,0,0,0-2.326-1.1,3.133,3.133,0,0,0-2.691.909A3.366,3.366,0,0,0,550.7,106.169ZM537.479,101.3h2.155a0.585,0.585,0,0,1,.051.251,35.874,35.874,0,0,0-.313,6.688,16.051,16.051,0,0,0,.329,3.595,3.6,3.6,0,0,1-1.7.02c-0.044-.331-0.085-0.638-0.128-0.963-0.529.3-1.015,0.626-1.544,0.857a4.11,4.11,0,0,1-2.833.2,3.026,3.026,0,0,1-2-1.842,4.562,4.562,0,0,1-.4-1.858c0.009-1.068-.017-2.136,0-3.2a13.533,13.533,0,0,0-.309-3.322,1.978,1.978,0,0,1,0-.417h2.155c-0.025.259-.05,0.532-0.079,0.8-0.048.446-.138,0.893-0.143,1.34-0.019,1.468-.028,2.937.006,4.4a5.542,5.542,0,0,0,.27,1.4,2.7,2.7,0,0,0,1.017,1.3,3.311,3.311,0,0,0,1.746.264,1.912,1.912,0,0,0,1.573-.966,2.506,2.506,0,0,0,.423-1.437c-0.007-1.789.016-3.578-.019-5.366A13.282,13.282,0,0,0,537.479,101.3Zm-7.6,10.544a6.773,6.773,0,0,1-1.739.072,23.25,23.25,0,0,1-4-4.581c-0.3.531-.249,2.947,0.109,4.535a10.757,10.757,0,0,1-2.212.032c0.071-.58.137-1.12,0.2-1.659a6.775,6.775,0,0,0,.094-0.785c0.01-1.839.028-3.68,0-5.519a14.914,14.914,0,0,0-.242-1.965,0.686,0.686,0,0,1,.024-0.616c0.941,0,1.825,0,2.708,0a3.724,3.724,0,0,1,2.735,1.165,2.661,2.661,0,0,1,.572,1.041,2.689,2.689,0,0,1-1.112,3.013c-0.261.176-.529,0.344-0.858,0.557A31.679,31.679,0,0,0,529.884,111.848Zm-5.879-9.478a16.806,16.806,0,0,0,.1,4.246,2.231,2.231,0,0,0,2.312-2.6,1.624,1.624,0,0,0-.731-1.182A2.085,2.085,0,0,0,524.005,102.37Zm69.762-1.014c0.816,0,1.509.01,2.2,0a6.5,6.5,0,0,1,3.465.891,4.832,4.832,0,0,1,2.275,2.983,5.482,5.482,0,0,1-.192,3.52,4.925,4.925,0,0,1-1.163,1.7,5.5,5.5,0,0,1-2.783,1.344,27.922,27.922,0,0,1-3.77.159A42.107,42.107,0,0,0,593.767,101.356Zm1.937,9.394a3.521,3.521,0,0,0,2.153-.35,4.035,4.035,0,0,0,1.921-1.753,3.631,3.631,0,0,0,.357-1.933,4.054,4.054,0,0,0-1.431-3.324,3.517,3.517,0,0,0-3.042-.865,1.294,1.294,0,0,0-.064.264q0,3.72,0,7.44A2.66,2.66,0,0,0,595.7,110.75Zm-6.535-3.654a23.885,23.885,0,0,0,3.743,4.723,5.854,5.854,0,0,1-1.781.106,20.4,20.4,0,0,1-3.987-4.706,3.17,3.17,0,0,0-.158,1.521,12.956,12.956,0,0,0,.016,1.6c0.042,0.5.159,0.988,0.251,1.533a10.655,10.655,0,0,1-2.182.034,41.774,41.774,0,0,0,0-10.546c0.946,0,1.88-.01,2.813,0a3.781,3.781,0,0,1,2.728,1.188,2.283,2.283,0,0,1,.452.922,2.545,2.545,0,0,1-1.225,3.213C589.64,106.812,589.439,106.932,589.169,107.1Zm-2.171-.5c1.73-.085,2.554-0.977,2.433-2.55A2.059,2.059,0,0,0,587,102.385v4.208Zm-67.065.087a11.461,11.461,0,0,0-.167,4.66,3.939,3.939,0,0,1-1.853.571,11.843,11.843,0,0,1-2.242.175,4.964,4.964,0,0,1-3.8-1.629,4.8,4.8,0,0,1-1.353-3.238,6.336,6.336,0,0,1,.54-2.946,5.372,5.372,0,0,1,2.211-2.34,5.168,5.168,0,0,1,2.922-.745,7.884,7.884,0,0,1,2.161.189c0.225,0.075.446,0.164,0.7,0.258v1.421a0.6,0.6,0,0,1-.683-0.148,4.576,4.576,0,0,0-2.247-.545,3.536,3.536,0,0,0-3.319,1.857,3.717,3.717,0,0,0-.516,2.058,5.367,5.367,0,0,0,.341,2.346,3.5,3.5,0,0,0,2.266,2.1,4.718,4.718,0,0,0,3.038-.274,11.322,11.322,0,0,0-.233-3.732A10.657,10.657,0,0,1,519.933,106.68Zm45.5-5.377h2.7a2.052,2.052,0,0,1,.062.457,4.642,4.642,0,0,0,.294,1.8q0.929,2.675,1.852,5.35a0.687,0.687,0,0,0,.143.154,2.309,2.309,0,0,0,.47-0.889c0.565-1.463,1.132-2.925,1.69-4.391a5.94,5.94,0,0,0,.419-2.014c0-.155.021-0.31,0.031-0.462h2.4a9,9,0,0,1-.71,1.468c-0.194.495-.44,0.97-0.647,1.461-0.217.514-.416,1.036-0.623,1.555q-0.294.741-.589,1.482l-0.625,1.554c-0.2.493-.392,0.988-0.595,1.48-0.212.516-.432,1.028-0.668,1.588h-1.2a4.1,4.1,0,0,1-.293-0.543c-0.6-1.648-1.187-3.3-1.785-4.95-0.353-.974-0.678-1.962-1.1-2.909a16.6,16.6,0,0,0-1.022-1.71A3.908,3.908,0,0,1,565.432,101.3Zm69.961,7.325c-0.181.522-.388,1.035-0.535,1.565s-0.233,1.079-.362,1.7a18.441,18.441,0,0,1-2.431.032,2.047,2.047,0,0,1,.193-0.395,15.985,15.985,0,0,0,2.068-3.776c0.032-.073.07-0.144,0.1-0.217q1.392-2.919,2.784-5.84c0.068-.143.147-0.281,0.248-0.474,1.936,3.5,3.233,7.265,5.4,10.662a13.064,13.064,0,0,1-2.272.034c-0.347-1.023-.672-2-1.013-2.971a1.219,1.219,0,0,0-.273-0.315h-3.913Zm2.084-4.513a11.135,11.135,0,0,0-1.3,3.184c0.428,0,.855.014,1.28,0a4.42,4.42,0,0,0,1.37-.086C638.369,106.161,637.93,105.154,637.477,104.115ZM582.859,111.9h-5.726a14.9,14.9,0,0,0,.314-4.455c0.022-.879.006-1.76,0-2.64a11.16,11.16,0,0,0-.316-3.523c1.985,0.225,3.867-.2,5.791.1a7.025,7.025,0,0,1-.682,1.525,12.152,12.152,0,0,0-1.538-.412,11,11,0,0,0-1.519-.015,13.717,13.717,0,0,0-.042,3.383,3.852,3.852,0,0,0,1.643.122c0.558,0.029,1.119.006,1.739,0.006a0.978,0.978,0,0,1-.067.308c-0.235.417-.487,0.824-0.762,1.284a3.99,3.99,0,0,0-2.532-.416,16.2,16.2,0,0,0-.011,3.519,4.05,4.05,0,0,0,2.188-.074,12.275,12.275,0,0,0,2.223-.581A9.918,9.918,0,0,1,582.859,111.9Zm64.488,6.25a4.786,4.786,0,0,1,1.716-.106,0.384,0.384,0,0,1,.107.141c-0.071.655-.156,1.309-0.225,1.964a3.074,3.074,0,0,0,.159,1.864c1.236,0,2.484.014,3.773-.012a11.857,11.857,0,0,0-.226-3.839,5.243,5.243,0,0,1,1.849-.121c-0.044.622-.1,1.213-0.123,1.806s-0.008,1.173-.009,1.759v1.839c0,0.587-.012,1.174.006,1.759,0.019,0.606.069,1.211,0.109,1.874a6.794,6.794,0,0,1-1.85.059,12.7,12.7,0,0,0,.279-3.87,16.264,16.264,0,0,0-3.932-.048,13.837,13.837,0,0,0,.195,3.853,6.331,6.331,0,0,1-1.821.061A38.614,38.614,0,0,0,647.347,118.154Zm-43.5-16.841H609.6a6.6,6.6,0,0,1-.723,1.627,5.337,5.337,0,0,0-2.984-.415,14.351,14.351,0,0,0-.021,3.457l3.323,0.036a4.817,4.817,0,0,1-.9,1.609,4.617,4.617,0,0,0-2.342-.57,1.744,1.744,0,0,0-.161,1.211c-0.031.4-.007,0.8-0.007,1.2V110.8a10.928,10.928,0,0,0,4.539-.863l-0.75,1.87a34.007,34.007,0,0,1-5.691.057c0.053-.406.11-0.816,0.16-1.226a9.792,9.792,0,0,0,.12-1.1c0.012-1.894,0-3.788.01-5.682a6.063,6.063,0,0,0-.284-2.119A1.743,1.743,0,0,1,603.845,101.313Zm-60.257,6.342a13.591,13.591,0,0,0,.294,4.247,11.3,11.3,0,0,1-2.232-.022c0.087-.615.173-1.185,0.247-1.757a5.88,5.88,0,0,0,.05-0.714c0-1.841.023-3.682-.007-5.523a17.881,17.881,0,0,0-.226-1.889c-0.029-.228-0.059-0.456-0.1-0.748a3.531,3.531,0,0,0,1.734,0c0.834,0.226,1.705.01,2.549,0.26a2.978,2.978,0,0,1,1.993,3.479,2.851,2.851,0,0,1-2.35,2.427,11.28,11.28,0,0,1-1.43.195C543.959,107.632,543.8,107.639,543.588,107.655Zm0.038-5.319a25.538,25.538,0,0,0,.044,4.431c1.351,0.147,2.252-.4,2.463-1.552a3.923,3.923,0,0,0,.012-1.19,1.945,1.945,0,0,0-1.678-1.683A6.136,6.136,0,0,0,543.626,102.336ZM656.89,101.3c1.119,0.02,2.155.02,3.188,0.063a3.112,3.112,0,0,1,2.313.945c1.253,1.4,1,4.248-1.19,4.963a4.73,4.73,0,0,1-1.886.346,3.863,3.863,0,0,0-.546.038c-0.025.74-.045,1.454,0,2.163,0.043,0.676.171,1.347,0.269,2.073a15.641,15.641,0,0,1-2.177.023c0.052-.552.1-1.043,0.145-1.535,0.045-.472.121-0.945,0.126-1.417,0.017-1.438,0-2.877.012-4.315a12.2,12.2,0,0,0-.3-2.994A1.166,1.166,0,0,1,656.89,101.3Zm3.822,5.075a2.882,2.882,0,0,0,.541-2.683,1.913,1.913,0,0,0-2.457-1.256,21.4,21.4,0,0,0,.082,4.345A2.413,2.413,0,0,0,660.712,106.379Zm-32.294-4.041a2.924,2.924,0,0,1-.515.123,3.7,3.7,0,0,0-3.176,3.045,4.674,4.674,0,0,0,.19,2.888,3.5,3.5,0,0,0,2.442,2.344,4.341,4.341,0,0,0,2.762-.254c0.464-.206.906-0.461,1.39-0.709v1.532a6.7,6.7,0,0,1-2.263.76,6.141,6.141,0,0,1-2.64-.183,4.83,4.83,0,0,1-3.593-3.835,5.643,5.643,0,0,1,4.061-6.761,4.438,4.438,0,0,1,1.738-.115c0.58,0.094,1.172.115,1.754,0.2a4.461,4.461,0,0,1,.758.257v1.484a5.978,5.978,0,0,1-1.375-.52C629.487,102.481,629.005,102.434,628.418,102.338Zm34.88,15.724a12.435,12.435,0,0,1,3.146.138,2.689,2.689,0,0,1,2.163,2.3,2.054,2.054,0,0,1-.845,1.962c-0.282.2-.577,0.378-0.911,0.6a27.526,27.526,0,0,0,3.131,4.053,8.416,8.416,0,0,1-1.529.041,24.414,24.414,0,0,1-3.51-4.1,13.849,13.849,0,0,0,.24,4.081h-1.861a27.432,27.432,0,0,0,.149-4.539A24.155,24.155,0,0,0,663.3,118.062Zm3.718,2.011a1.919,1.919,0,0,0-2.1-1.036c0,1.2,0,2.38,0,3.55a2.172,2.172,0,0,0,2.1-1.193v-1.321Zm-143.174,7.071a33.145,33.145,0,0,0-.019-9.042,7.284,7.284,0,0,1,2.183-.034,6.732,6.732,0,0,1,2.163.56,4.149,4.149,0,0,1,2.353,2.553,4.448,4.448,0,0,1-.678,4.293A4.61,4.61,0,0,1,527.378,127a7.39,7.39,0,0,1-2.079.161C524.823,127.166,524.347,127.15,523.842,127.144Zm1.669-8.114a57.373,57.373,0,0,0,.042,7.129A3.385,3.385,0,0,0,529.33,123C529.358,120.482,527.868,118.986,525.511,119.03Zm92.181,4.027a9.387,9.387,0,0,0-.058,2.108c0.035,0.628.168,1.251,0.264,1.919a9.024,9.024,0,0,1-1.846.079,35.581,35.581,0,0,0,.01-9.018,8.1,8.1,0,0,1,2.279-.067,6.984,6.984,0,0,1,1.761.519,2.3,2.3,0,0,1,.189,3.962c-0.231.13-.441,0.3-0.719,0.483a25.225,25.225,0,0,0,3.135,4,3.929,3.929,0,0,1-1.422.108C619.785,126.119,618.923,124.553,617.692,123.057Zm0.066-4.151a12.187,12.187,0,0,0-.014,3.647,1.937,1.937,0,0,0,2.116-1.674C620.011,119.915,619.227,119.163,617.758,118.906Zm-43.416,8.218h-1.6c-0.358-.366-0.781-0.775-1.178-1.207-0.416-.452-0.8-0.928-1.208-1.391a10.392,10.392,0,0,0-1.108-1.442,15.616,15.616,0,0,0,.24,3.989,6.154,6.154,0,0,1-1.834.061,40.445,40.445,0,0,0,0-9.009,2.648,2.648,0,0,1,.45-0.086,9.892,9.892,0,0,1,2.566.16,2.545,2.545,0,0,1,2.235,2.68,2.338,2.338,0,0,1-1.1,1.769c-0.17.119-.359,0.213-0.6,0.354A19.791,19.791,0,0,0,574.342,127.124Zm-4.941-4.473c1.421-.252,2.241-1.187,2.015-2.246a1.746,1.746,0,0,0-2.192-1.315c0,1.111,0,2.225.007,3.34A0.636,0.636,0,0,0,569.4,122.651Zm42.089-11.032v-1.762c0.188,0.162.324,0.271,0.449,0.389a2.426,2.426,0,0,0,2.263.537,1.646,1.646,0,0,0,.729-2.833,9.973,9.973,0,0,0-1.147-.868,12.915,12.915,0,0,1-1.4-1.062,2.519,2.519,0,0,1-.664-3.053,2.808,2.808,0,0,1,2.574-1.755,4.13,4.13,0,0,1,2.411.3,3.512,3.512,0,0,1,.031,1.554l-1.833-.75-1.068.25-0.5.52a1.991,1.991,0,0,0,.973,2.406c0.54,0.39,1.1.755,1.621,1.171a14.33,14.33,0,0,1,1.032,1.018,14.543,14.543,0,0,1,.161,1.589,2.988,2.988,0,0,1-2.166,2.667A5.223,5.223,0,0,1,611.49,111.619Zm70.55-9.962v1.429a2.857,2.857,0,0,1-1.015-.48,8.756,8.756,0,0,0-1.066-.22,1.523,1.523,0,0,0-1.571,1.438,2.463,2.463,0,0,0,1.311,1.72,11.289,11.289,0,0,1,1.9,1.48,2.807,2.807,0,0,1,.662,3.024,2.9,2.9,0,0,1-2.044,1.882,4.954,4.954,0,0,1-3.393-.282,5.379,5.379,0,0,1-.04-1.756c1.6,1.294,2.625,1.317,3.766.119a1.811,1.811,0,0,0-.821-2.449c-0.615-.427-1.243-0.84-1.822-1.312a2.708,2.708,0,0,1-.654-3.775,2.93,2.93,0,0,1,1.382-1.059,4.435,4.435,0,0,1,2.674-.166A2.854,2.854,0,0,1,682.04,101.657Zm-125.4,23.656a1.174,1.174,0,0,1,.05.23c0.006,0.292,0,.585,0,0.849-0.465.679-1.25,0.623-1.941,0.94a4.991,4.991,0,0,1,.524.606,4,4,0,0,1,.27.666l-0.349.9a1.651,1.651,0,0,1-2.137.225,1.036,1.036,0,0,1-.046-0.228,0.477,0.477,0,0,1,.1-0.159l0.916,0.059a0.94,0.94,0,0,0,.647-0.9,1.141,1.141,0,0,0-1.289-.737l0.027-.375c-0.289-.075-0.589-0.159-0.892-0.233a4.4,4.4,0,0,1-3.3-4.113,5.451,5.451,0,0,1,.689-2.826A4.722,4.722,0,0,1,553.189,118a8.079,8.079,0,0,1,3.079.231,0.638,0.638,0,0,1,.179.664,2.958,2.958,0,0,0-.013.765,5.156,5.156,0,0,1-.592-0.22,4.72,4.72,0,0,0-2.019-.459,3.271,3.271,0,0,0-2.763,1.888,4.309,4.309,0,0,0-.045,3.412,2.806,2.806,0,0,0,2.032,1.88,3.754,3.754,0,0,0,2.524-.279Zm-2.621,1.965-0.009-.1-0.31.028,0.009,0.1Zm-37.287-9.212h1.987c-0.273.571-.55,1.1-0.786,1.654-0.491,1.15-.963,2.306-1.436,3.463-0.533,1.3-1.059,2.609-1.6,3.936h-1.048a11.48,11.48,0,0,1-.911-2.239c-0.54-1.415-1.059-2.838-1.569-4.264a9.192,9.192,0,0,0-1.158-2.182c-0.058-.082-0.106-0.171-0.216-0.349a16.143,16.143,0,0,1,2.347-.027,0.479,0.479,0,0,1,.1.168,6.221,6.221,0,0,0,.5,2.56c0.454,1.22.87,2.454,1.3,3.681,0.032,0.089.08,0.172,0.2,0.417C515.22,122.533,516.38,120.485,516.733,118.066ZM683,127.124h-1.956c-0.105-.451-0.179-0.92-0.327-1.365s-0.371-.871-0.586-1.361H676.7a8.534,8.534,0,0,0-.83,2.72h-1.994c0.424-.747.856-1.457,1.237-2.193,0.392-.757.736-1.539,1.1-2.31,0.353-.747.7-1.5,1.058-2.241,0.367-.764.743-1.524,1.158-2.373a15.242,15.242,0,0,1,1.155,2.307c0.408,0.748.739,1.537,1.1,2.309,0.352,0.747.684,1.5,1.061,2.239C682.136,125.613,682.569,126.347,683,127.124Zm-5.815-3.993,2.293,0.106a2.626,2.626,0,0,0-.466-1.4,2.036,2.036,0,0,0-.7-1.252C677.935,121.433,677.584,122.226,677.185,123.131Zm-89.825,4h-1.95a9.354,9.354,0,0,0-1.01-2.777h-3.279a4.68,4.68,0,0,0-.819,2.792c-0.378.006-.721,0.015-1.063,0.015-0.317,0-.634-0.009-0.949-0.015a0.6,0.6,0,0,1,0-.222,38.662,38.662,0,0,0,2.921-5.762c0.481-1.037.994-2.06,1.542-3.189C584.408,120.982,585.518,124.17,587.36,127.13Zm-5.83-3.967h2.434a17.791,17.791,0,0,0-1.3-2.649Zm-17.177,4a9.661,9.661,0,0,0-.954-2.725l-3.282-.124a4.77,4.77,0,0,0-.871,2.714,4.911,4.911,0,0,1-2.145.068,23.18,23.18,0,0,0,2.227-4.133c0.736-1.595,1.521-3.168,2.3-4.791a1.224,1.224,0,0,1,.555.666q0.963,2.022,1.914,4.052c0.272,0.579.521,1.169,0.812,1.739,0.412,0.8.853,1.592,1.309,2.439a1.573,1.573,0,0,1-.881.091C565.046,127.179,564.749,127.163,564.353,127.163Zm-1.57-3.96a6.778,6.778,0,0,0-1.17-2.617c-0.2.458-.4,0.889-0.57,1.331a2.17,2.17,0,0,0-.436,1.286h2.176Zm50.395,0.26a4.15,4.15,0,0,0-2.086-.438,10.712,10.712,0,0,0-.057,3.144,9.333,9.333,0,0,0,3.807-.65l-0.7,1.608h-4.756c0.05-.768.116-1.5,0.138-2.229,0.024-.773.007-1.547,0.007-2.32,0-.746.016-1.494-0.006-2.24s-0.085-1.47-.13-2.2a30.623,30.623,0,0,1,4.737-.034,1.954,1.954,0,0,1-.558,1.364,5.59,5.59,0,0,0-2.473-.448,9.488,9.488,0,0,0-.07,3H613.9A5.416,5.416,0,0,1,613.178,123.463Zm43.372,3.666a11.5,11.5,0,0,0,.273-3.352c0-1.146.014-2.292-.009-3.438-0.01-.526-0.1-1.051-0.141-1.578-0.017-.208,0-0.418,0-0.621a30.357,30.357,0,0,1,4.821-.035,6.45,6.45,0,0,1-.6,1.3,5.96,5.96,0,0,0-2.64-.332v2.953h2.94a4.285,4.285,0,0,1-.835,1.383,4.778,4.778,0,0,0-2.076-.369c-0.049,1.029-.013,2.033-0.024,3.051a3.344,3.344,0,0,0,1.912-.061,15.275,15.275,0,0,0,1.866-.45c-0.219.563-.407,1.047-0.6,1.553H656.55Zm-58.535-1.57a11.839,11.839,0,0,1-.676,1.5,31.484,31.484,0,0,1-4.789.028,32.8,32.8,0,0,0-.024-8.918,23.031,23.031,0,0,1,4.817-.042,5.3,5.3,0,0,1-.508,1.344,5.125,5.125,0,0,0-2.662-.441c-0.106.969-.016,1.92-0.055,2.892a3.677,3.677,0,0,0,1.445.107c0.477,0.024.955,0.013,1.482,0.017a4.116,4.116,0,0,1-.706,1.412,4.2,4.2,0,0,0-2.185-.417c-0.059,1.027-.019,2.049-0.031,3.083a4.427,4.427,0,0,0,1.973-.093C596.711,125.918,597.314,125.736,598.015,125.559Zm4.881,1.36V125.38a2.547,2.547,0,0,0,2.566.745l0.757-.742a1.688,1.688,0,0,0-.819-1.956c-0.583-.373-1.121-0.818-1.665-1.248a2.136,2.136,0,0,1-.793-2.345,2.441,2.441,0,0,1,1.95-1.8,3.5,3.5,0,0,1,2.463.248v1.376a2.66,2.66,0,0,0-2.162-.6l-0.567.361a1.368,1.368,0,0,0,.426,2.08c0.636,0.444,1.274.873,1.868,1.382a2.514,2.514,0,0,1-.9,4.224A3.765,3.765,0,0,1,602.9,126.919Zm37.876-8.854h1.793c-0.318,2.7-.106,5.371-0.181,8.1a9.425,9.425,0,0,0,3.586-.649,11.44,11.44,0,0,1-.715,1.616H640.8a26.935,26.935,0,0,0,.152-4.541A23.153,23.153,0,0,0,640.772,118.065Zm-63.761,9.065H575.28a0.422,0.422,0,0,1-.086-0.165,25.263,25.263,0,0,0,.16-4.06c0.014-.395.072-0.79,0.107-1.185a2.271,2.271,0,0,0,.014-0.319c-0.044-.742-0.082-1.484-0.144-2.224-0.028-.339-0.105-0.674-0.167-1.053a6.938,6.938,0,0,1,1.909-.064,32.991,32.991,0,0,0-.271,6.614C576.8,125.463,576.932,126.252,577.011,127.13Zm93.846,0.039a22.819,22.819,0,0,0,.22-4.569,22.607,22.607,0,0,0-.211-4.51h1.8a27.483,27.483,0,0,0-.145,4.506,23.218,23.218,0,0,0,.175,4.484A9.251,9.251,0,0,1,670.857,127.169Zm-148.834-.049h-1.9a33.18,33.18,0,0,0-.028-9.062c0.358-.009.672-0.019,0.988-0.023,0.291,0,.582,0,0.937,0a17.23,17.23,0,0,0-.31,4.348c0,0.613.011,1.228,0,1.841A9.035,9.035,0,0,0,522.023,127.12Z" transform="translate(-510 -52)"/>
</svg>
