<svg xmlns="http://www.w3.org/2000/svg" width="208" height="33" viewBox="0 0 208 33">
  <metadata><?xpacket begin="﻿" id="W5M0MpCehiHzreSzNTczkc9d"?>
<x:xmpmeta xmlns:x="adobe:ns:meta/" x:xmptk="Adobe XMP Core 5.6-c142 79.160924, 2017/07/13-01:06:39        ">
   <rdf:RDF xmlns:rdf="http://www.w3.org/1999/02/22-rdf-syntax-ns#">
      <rdf:Description rdf:about=""/>
   </rdf:RDF>
</x:xmpmeta>
                                                                                                    
                                                                                                    
                                                                                                    
                                                                                                    
                                                                                                    
                                                                                                    
                                                                                                    
                                                                                                    
                                                                                                    
                                                                                                    
                                                                                                    
                                                                                                    
                                                                                                    
                                                                                                    
                                                                                                    
                                                                                                    
                                                                                                    
                                                                                                    
                                                                                                    
                                                                                                    
                           
<?xpacket end="w"?></metadata>
<defs>
    <style>
      .cls-1 {
        fill: #414141;
        fill-rule: evenodd;
      }
    </style>
  </defs>
  <path id="Forma_45" data-name="Forma 45" class="cls-1" d="M544.575,5175.65c0.86,1.5,1.654,2.88,2.478,4.32-2.205,3.82-4.428,7.64-6.619,11.48s-4.366,7.69-6.558,11.46a34.36,34.36,0,0,1-4.868,0,0.458,0.458,0,0,1,0-.2C534.176,5193.72,539.344,5184.74,544.575,5175.65Zm4.454,16.85h26.322c-0.813,1.44-1.6,2.82-2.387,4.22H546.622C547.438,5195.29,548.226,5193.91,549.029,5192.5Zm-5.556-22.35a28.8,28.8,0,0,1,4.891-.1q5.847,10.2,11.734,20.47a28.872,28.872,0,0,1-4.893.07Q549.366,5180.42,543.473,5170.15Zm-2.5,32.82h-4.752a1.3,1.3,0,0,1,.269-0.72q1.435-2.55,2.887-5.1c0.725-1.26,1.468-2.52,2.2-3.78,0.61-1.06,1.211-2.13,1.816-3.19,0.569-1.01,1.134-2.01,1.707-3.01,0.667-1.17,1.34-2.33,2.011-3.49,0.318-.55.636-1.1,0.99-1.71a11.373,11.373,0,0,1,1.274,2.1c0.4,0.69.829,1.36,1.268,2.08C547.4,5191.77,544.192,5197.36,540.968,5202.97Zm10.923-30.68h4.924q5.2,9.09,10.406,18.2a21.81,21.81,0,0,1-4.8.12c-0.1-.15-0.248-0.33-0.364-0.53-0.947-1.63-1.895-3.25-2.831-4.88-0.656-1.15-1.288-2.31-1.941-3.45-0.792-1.39-1.6-2.78-2.393-4.16-0.329-.57-0.661-1.14-0.986-1.72C553.261,5174.73,552.618,5173.58,551.891,5172.29Zm-6.395,26.42h20.735a0.3,0.3,0,0,1,.035.05,0.1,0.1,0,0,1,.011.07q-1.189,2.04-2.384,4.09c-0.525.1-20.021,0.11-20.8,0C543.862,5201.49,544.634,5200.09,545.5,5198.71Zm144.352,0.9a30.494,30.494,0,0,1-3.092-3.6,10.158,10.158,0,0,0,.273,3.51,4.453,4.453,0,0,1-1.663.05,31.448,31.448,0,0,0,0-8.04,6.514,6.514,0,0,1,3.488.47,2.064,2.064,0,0,1,1.116,1.83,1.945,1.945,0,0,1-1.024,1.81c-0.172.11-.347,0.22-0.535,0.33a20.576,20.576,0,0,0,2.71,3.49,1.431,1.431,0,0,0,.6-0.68c0.745-1.58,1.483-3.16,2.232-4.74,0.384-.8.786-1.6,1.183-2.4a0.36,0.36,0,0,1,.142-0.09c0.484,1.02.974,2.03,1.447,3.05,0.416,0.9.787,1.82,1.224,2.71,0.373,0.75.811,1.48,1.24,2.25a7.984,7.984,0,0,1-1.7.03,8.735,8.735,0,0,0-.815-2.43h-2.935a5.243,5.243,0,0,0-.7,2.38,5.952,5.952,0,0,1-1.579.07C690.914,5199.63,690.375,5199.61,689.848,5199.61Zm-2.906-3.97a5.072,5.072,0,0,0,.563-0.16c0.232-.11.447-0.25,0.631-0.35a1.567,1.567,0,0,0,.22-2.16,1.416,1.416,0,0,0-1.586-.51A7.573,7.573,0,0,0,686.942,5195.64Zm7.217,0.47h2.085a14.421,14.421,0,0,0-1.117-2.38A13.99,13.99,0,0,0,694.159,5196.11Zm-74.243,3.48h-1.757a8.906,8.906,0,0,0-.862-2.53,8.067,8.067,0,0,1-2.729.01,0.68,0.68,0,0,0-.45.57c-0.155.63-.327,1.26-0.5,1.94h-3.146c-0.489-.54-1.018-1.14-1.568-1.71-0.526-.55-0.842-1.27-1.455-1.89a11.893,11.893,0,0,0,.217,3.55,5.908,5.908,0,0,1-1.62.06,35.374,35.374,0,0,0,0-7.98,8.045,8.045,0,0,1,2.092-.06c0.228,0.05.459,0.08,0.686,0.13a2.74,2.74,0,0,1,1.583,1.15c0.426,1.23.393,2.09-1.25,3.13a17.707,17.707,0,0,0,2.662,3.54,4.42,4.42,0,0,0,.942-1.43c0.547-1.09,1.03-2.22,1.546-3.33,0.227-.49.47-0.97,0.707-1.46,0.277-.56.555-1.13,0.872-1.78,0.74,1.35,1.285,2.74,1.944,4.07A32.783,32.783,0,0,0,619.916,5199.59Zm-12.375-3.96a2.287,2.287,0,0,0,1.592-.89,1.557,1.557,0,0,0-.569-2.2,1.489,1.489,0,0,0-1.172-.09c0,0.95,0,1.91,0,2.87A0.921,0.921,0,0,0,607.541,5195.63Zm8.244-1.85a16.963,16.963,0,0,0-.92,2.19,4.128,4.128,0,0,0,1.924-.02A8.146,8.146,0,0,0,615.785,5193.78Zm87.438-7.69a8.765,8.765,0,0,0,.293-2.59c-0.013-1.88,0-3.75,0-5.71-0.242-.31-0.523-0.67-0.865-1.11h2.01a10.96,10.96,0,0,0,1.632,2.26c0.633,0.71,1.125,1.54,1.88,2.26a43.164,43.164,0,0,0,3.353-4.57c0.265,0.02.555,0.05,0.846,0.06,0.273,0.01.548,0,.893,0a5.628,5.628,0,0,1-.233.57,3.277,3.277,0,0,0-.375,1.57c0.013,1.89,0,3.79.013,5.68,0,0.28.079,0.56,0.108,0.84,0.023,0.23.025,0.45,0.038,0.72h-1.779a1.917,1.917,0,0,1-.043-0.39c0.038-.4.105-0.79,0.141-1.19,0.049-.54.1-1.08,0.113-1.62,0.018-.97,0-1.94,0-2.91,0-.16-0.017-0.33-0.032-0.58a1.931,1.931,0,0,0-.355.29c-0.808,1.07-1.606,2.14-2.415,3.21a3.892,3.892,0,0,1-.4.38c-1-1.2-1.973-2.36-2.949-3.53a0.194,0.194,0,0,0-.067.01,27.434,27.434,0,0,0,.143,6.25,0.4,0.4,0,0,1-.164.09C704.449,5186.09,703.888,5186.09,703.223,5186.09Zm17.272-4.7a5.05,5.05,0,0,1,.637-2.39,4.644,4.644,0,0,1,3.722-2.44,5.8,5.8,0,0,1,1.991.15,4.291,4.291,0,0,1,2.706,2.29,5.13,5.13,0,0,1,.588,2.45,4.711,4.711,0,0,1-1.627,3.61,4.9,4.9,0,0,1-5.981.33,4.215,4.215,0,0,1-1.732-2.49C720.7,5182.4,720.6,5181.89,720.5,5181.39Zm1.615-.34a3.987,3.987,0,0,0,.732,2.67,3.111,3.111,0,0,0,5.044.22,4.483,4.483,0,0,0,.288-4.29,3.262,3.262,0,0,0-2.62-1.99,2.675,2.675,0,0,0-2.215.6A3.115,3.115,0,0,0,722.11,5181.05Zm-101.82.29a4.757,4.757,0,0,1,3.787-4.72,4.57,4.57,0,0,1,3.732.68,4.674,4.674,0,0,1,2,3.42,5.506,5.506,0,0,1-.214,2.35,4.394,4.394,0,0,1-2.941,2.9,4.522,4.522,0,0,1-4.045-.36,4.472,4.472,0,0,1-2.131-3.02C620.4,5182.18,620.351,5181.76,620.29,5181.34Zm1.591-.36a4.121,4.121,0,0,0,1.3,3.39,3.085,3.085,0,0,0,4.041-.01,3.42,3.42,0,0,0,1.049-1.93,4.433,4.433,0,0,0-1.041-3.8,2.868,2.868,0,0,0-2.024-.97,2.689,2.689,0,0,0-2.342.8A3.017,3.017,0,0,0,621.881,5180.98Zm-11.5-4.31h1.875a0.489,0.489,0,0,1,.044.22,32.379,32.379,0,0,0-.272,5.93,14.408,14.408,0,0,0,.286,3.19,3.09,3.09,0,0,1-1.481.02c-0.039-.29-0.075-0.57-0.112-0.85-0.46.26-.883,0.55-1.344,0.76a3.547,3.547,0,0,1-2.465.18,2.658,2.658,0,0,1-1.735-1.64,4.083,4.083,0,0,1-.347-1.65c0.008-.94-0.015-1.89,0-2.84a12.241,12.241,0,0,0-.269-2.95,1.806,1.806,0,0,1,0-.37h1.875c-0.022.23-.043,0.47-0.069,0.72-0.042.39-.12,0.79-0.125,1.19-0.016,1.3-.024,2.6.006,3.9a4.942,4.942,0,0,0,.235,1.24,2.329,2.329,0,0,0,.885,1.15,2.761,2.761,0,0,0,1.519.24,1.657,1.657,0,0,0,1.369-.86,2.239,2.239,0,0,0,.367-1.27c0-1.59.014-3.18-.016-4.77A12.175,12.175,0,0,0,610.38,5176.67Zm-6.609,9.35a5.7,5.7,0,0,1-1.513.07,20.78,20.78,0,0,1-3.478-4.07,9.574,9.574,0,0,0,.1,4.02,8.79,8.79,0,0,1-1.925.03c0.062-.51.12-0.99,0.178-1.47a6.008,6.008,0,0,0,.082-0.69c0.008-1.64.024-3.27,0-4.9a13.562,13.562,0,0,0-.211-1.75,0.6,0.6,0,0,1,.022-0.54c0.818,0,1.587-.01,2.356,0a3.193,3.193,0,0,1,2.379,1.03,2.365,2.365,0,0,1,.5.93,2.4,2.4,0,0,1-.967,2.67c-0.228.15-.461,0.3-0.747,0.49A27.5,27.5,0,0,0,603.771,5186.02Zm-5.115-8.41a15.22,15.22,0,0,0,.089,3.77,1.965,1.965,0,0,0,2.011-2.31,1.443,1.443,0,0,0-.636-1.05A1.79,1.79,0,0,0,598.656,5177.61Zm60.7-.9c0.711,0,1.314.01,1.917,0a5.587,5.587,0,0,1,3.014.79,4.278,4.278,0,0,1,1.98,2.65,4.942,4.942,0,0,1-.167,3.12,4.3,4.3,0,0,1-1.011,1.51,4.7,4.7,0,0,1-2.422,1.19,25.167,25.167,0,0,1-3.28.15A38.117,38.117,0,0,0,659.356,5176.71Zm1.686,8.34a3.048,3.048,0,0,0,1.874-.31,3.576,3.576,0,0,0,1.671-1.56,3.256,3.256,0,0,0,.311-1.71,3.616,3.616,0,0,0-1.245-2.95,3.009,3.009,0,0,0-2.647-.77,1.237,1.237,0,0,0-.056.23c0,2.2,0,4.41,0,6.61A2.578,2.578,0,0,0,661.042,5185.05Zm-5.686-3.24a21.338,21.338,0,0,0,3.257,4.19,5.2,5.2,0,0,1-1.549.09,17.876,17.876,0,0,1-3.47-4.18,2.889,2.889,0,0,0-.138,1.35,11.971,11.971,0,0,0,.015,1.43c0.036,0.44.137,0.87,0.218,1.35a9.166,9.166,0,0,1-1.9.04,37.826,37.826,0,0,0,0-9.36c0.823,0,1.635-.01,2.447,0a3.277,3.277,0,0,1,2.373,1.05,2.046,2.046,0,0,1,.394.82,2.27,2.27,0,0,1-1.066,2.85Zm-1.889-.45a1.93,1.93,0,0,0,2.117-2.26,1.786,1.786,0,0,0-2.117-1.47v3.73Zm-58.354.08a10.331,10.331,0,0,0-.146,4.13,3.338,3.338,0,0,1-1.612.51,9.8,9.8,0,0,1-1.951.15,4.246,4.246,0,0,1-3.308-1.44,4.312,4.312,0,0,1-1.178-2.87,5.767,5.767,0,0,1,.47-2.62,4.793,4.793,0,0,1,1.924-2.08,4.54,4.54,0,0,1,2.543-.66,6.6,6.6,0,0,1,1.88.17c0.2,0.07.388,0.15,0.61,0.23v1.26a0.516,0.516,0,0,1-.594-0.13,3.893,3.893,0,0,0-1.956-.48,3.053,3.053,0,0,0-2.887,1.64,3.373,3.373,0,0,0-.449,1.83,4.819,4.819,0,0,0,.3,2.08,3.07,3.07,0,0,0,1.972,1.86,3.944,3.944,0,0,0,2.643-.24,10.216,10.216,0,0,0-.2-3.31A8.948,8.948,0,0,1,595.113,5181.44Zm39.589-4.77h2.349a1.834,1.834,0,0,1,.054.4,4.123,4.123,0,0,0,.256,1.59q0.807,2.385,1.611,4.75a0.522,0.522,0,0,0,.124.14,2.136,2.136,0,0,0,.41-0.79c0.491-1.3.984-2.6,1.469-3.9a5.283,5.283,0,0,0,.365-1.78c0-.14.018-0.28,0.027-0.41h2.085a7.914,7.914,0,0,1-.617,1.3c-0.169.44-.383,0.86-0.563,1.3s-0.362.91-.542,1.38c-0.171.43-.341,0.87-0.513,1.31q-0.27.69-.543,1.38c-0.173.44-.342,0.88-0.518,1.31-0.184.46-.376,0.91-0.581,1.41h-1.046a3.526,3.526,0,0,1-.254-0.48c-0.522-1.46-1.033-2.93-1.553-4.39-0.308-.87-0.59-1.74-0.954-2.58a14.7,14.7,0,0,0-.889-1.52A4.312,4.312,0,0,1,634.7,5176.67Zm60.875,6.5c-0.158.46-.339,0.91-0.466,1.38s-0.2.96-.315,1.51a18.465,18.465,0,0,1-2.116.03,1.544,1.544,0,0,1,.169-0.35,14.552,14.552,0,0,0,1.8-3.35c0.028-.07.061-0.13,0.091-0.2q1.211-2.58,2.422-5.18c0.059-.13.128-0.25,0.215-0.42,1.686,3.11,2.814,6.45,4.7,9.46a10.963,10.963,0,0,1-1.977.03c-0.3-.91-0.584-1.77-0.881-2.64a1.088,1.088,0,0,0-.238-0.27h-3.4Zm1.813-4.01a9.885,9.885,0,0,0-1.131,2.83c0.372,0,.743.01,1.113-0.01a3.725,3.725,0,0,0,1.192-.07C698.166,5180.98,697.784,5180.08,697.39,5179.16Zm-47.524,6.91h-4.983a13.426,13.426,0,0,0,.274-3.95c0.019-.78,0-1.56,0-2.34a10.12,10.12,0,0,0-.275-3.13c1.727,0.2,3.365-.18,5.039.09a6.239,6.239,0,0,1-.593,1.36,9.963,9.963,0,0,0-1.338-.37,9.721,9.721,0,0,0-1.322-.01,12.4,12.4,0,0,0-.037,3,3.282,3.282,0,0,0,1.43.11c0.485,0.02.973,0,1.513,0a0.934,0.934,0,0,1-.058.28c-0.205.37-.424,0.73-0.663,1.13a3.432,3.432,0,0,0-2.2-.36,14.556,14.556,0,0,0-.01,3.12,3.429,3.429,0,0,0,1.9-.07,10.865,10.865,0,0,0,1.934-.51A9.032,9.032,0,0,1,649.866,5186.07Zm56.111,5.55a4.2,4.2,0,0,1,1.494-.1,0.443,0.443,0,0,1,.093.13c-0.062.58-.136,1.16-0.2,1.74a2.8,2.8,0,0,0,.138,1.66c1.076,0,2.162.01,3.283-.01a10.709,10.709,0,0,0-.2-3.41,4.554,4.554,0,0,1,1.609-.11c-0.038.55-.088,1.08-0.107,1.6s-0.007,1.04-.008,1.56c0,0.55,0,1.09,0,1.64,0,0.52-.011,1.04,0,1.56,0.017,0.54.06,1.07,0.1,1.66a5.639,5.639,0,0,1-1.61.05,11.409,11.409,0,0,0,.243-3.43,13.2,13.2,0,0,0-3.422-.04,12.578,12.578,0,0,0,.17,3.42,5.586,5.586,0,0,1-1.584.05A34.941,34.941,0,0,0,705.977,5191.62Zm-37.851-14.95h5a5.915,5.915,0,0,1-.628,1.45,4.575,4.575,0,0,0-2.6-.37,13.009,13.009,0,0,0-.018,3.07l2.891,0.03a4.355,4.355,0,0,1-.785,1.43,3.924,3.924,0,0,0-2.037-.51,1.592,1.592,0,0,0-.141,1.08c-0.026.35-.006,0.71-0.006,1.06v1.18a9.248,9.248,0,0,0,3.95-.77c-0.253.65-.456,1.16-0.653,1.66a28.7,28.7,0,0,1-4.952.05c0.047-.36.1-0.72,0.14-1.08a9.064,9.064,0,0,0,.1-0.98c0.011-1.68,0-3.36.009-5.04a5.432,5.432,0,0,0-.248-1.88A1.706,1.706,0,0,1,668.126,5176.67ZM615.7,5182.3a12.294,12.294,0,0,0,.256,3.77,9.672,9.672,0,0,1-1.942-.02c0.076-.54.15-1.05,0.214-1.56a4.941,4.941,0,0,0,.044-0.63c0-1.64.02-3.27-.006-4.9a16.016,16.016,0,0,0-.2-1.68c-0.025-.2-0.051-0.4-0.083-0.66a3.078,3.078,0,0,0,1.509,0c0.725,0.2,1.483.01,2.218,0.23a2.657,2.657,0,0,1,1.734,3.09,2.5,2.5,0,0,1-2.045,2.15,8.578,8.578,0,0,1-1.244.17C616.018,5182.28,615.882,5182.29,615.7,5182.3Zm0.033-4.72a23.143,23.143,0,0,0,.039,3.93,1.713,1.713,0,0,0,2.143-1.37,3.587,3.587,0,0,0,.01-1.06,1.708,1.708,0,0,0-1.46-1.49A4.394,4.394,0,0,0,615.728,5177.58Zm98.553-.91c0.974,0.01,1.875.01,2.774,0.05a2.693,2.693,0,0,1,2.013.84c1.09,1.24.875,3.77-1.036,4.4a4.011,4.011,0,0,1-1.641.31,3.088,3.088,0,0,0-.475.04c-0.022.65-.039,1.29,0,1.91,0.037,0.6.149,1.2,0.234,1.84a13.28,13.28,0,0,1-1.894.03c0.046-.5.086-0.93,0.126-1.37,0.039-.42.105-0.84,0.11-1.26,0.015-1.27,0-2.55.01-3.82a10.97,10.97,0,0,0-.262-2.66A1.029,1.029,0,0,1,714.281,5176.67Zm3.326,4.5a2.6,2.6,0,0,0,.471-2.38,1.662,1.662,0,0,0-2.138-1.12,19.369,19.369,0,0,0,.071,3.86A2.044,2.044,0,0,0,717.607,5181.17Zm-28.1-3.59a1.981,1.981,0,0,1-.449.11,3.258,3.258,0,0,0-2.763,2.7,4.242,4.242,0,0,0,.165,2.57,3.083,3.083,0,0,0,2.125,2.08,3.755,3.755,0,0,0,2.4-.23c0.4-.18.789-0.41,1.209-0.63v1.36a5.658,5.658,0,0,1-1.969.68,5.258,5.258,0,0,1-2.3-.17,4.238,4.238,0,0,1-3.126-3.4,5.028,5.028,0,0,1,.777-4.06,4.893,4.893,0,0,1,2.756-1.94,3.836,3.836,0,0,1,1.513-.1c0.5,0.08,1.02.1,1.526,0.18a4.5,4.5,0,0,1,.659.23v1.32a4.78,4.78,0,0,1-1.2-.47C690.437,5177.71,690.018,5177.67,689.508,5177.58Zm30.349,13.96a10.724,10.724,0,0,1,2.737.12,2.361,2.361,0,0,1,1.882,2.04,1.841,1.841,0,0,1-.735,1.74c-0.246.17-.5,0.33-0.792,0.53a24.051,24.051,0,0,0,2.724,3.59,6.741,6.741,0,0,1-1.331.04,21.47,21.47,0,0,1-3.054-3.64,12.541,12.541,0,0,0,.209,3.62h-1.619a24.863,24.863,0,0,0,.13-4.02A21.92,21.92,0,0,0,719.857,5191.54Zm3.235,1.78a1.662,1.662,0,0,0-1.829-.92c0,1.07,0,2.11,0,3.15a1.877,1.877,0,0,0,1.826-1.06v-1.17Zm-124.578,6.28a29.982,29.982,0,0,0-.017-8.03,6.389,6.389,0,0,1,1.9-.03,5.751,5.751,0,0,1,1.882.5,3.634,3.634,0,0,1,2.047,2.26,3.885,3.885,0,0,1-2.736,5.17,6.476,6.476,0,0,1-1.808.14C599.367,5199.61,598.953,5199.6,598.514,5199.6Zm1.452-7.2a51.834,51.834,0,0,0,.036,6.32,2.958,2.958,0,0,0,3.287-2.8C603.313,5193.68,602.017,5192.36,599.966,5192.4Zm80.209,3.57a8.417,8.417,0,0,0-.051,1.87c0.03,0.56.146,1.11,0.23,1.7a7.772,7.772,0,0,1-1.607.07,32.159,32.159,0,0,0,.009-8,6.906,6.906,0,0,1,1.983-.06,6.466,6.466,0,0,1,1.533.46,2.067,2.067,0,0,1,.164,3.52,7.3,7.3,0,0,0-.626.43,22.772,22.772,0,0,0,2.728,3.55,3.36,3.36,0,0,1-1.238.09C682,5198.69,681.245,5197.3,680.175,5195.97Zm0.057-3.68a10.965,10.965,0,0,0-.012,3.23,1.691,1.691,0,0,0,1.841-1.48C682.193,5193.18,681.51,5192.51,680.232,5192.29Zm-37.777,7.29h-1.388c-0.312-.33-0.68-0.69-1.026-1.07-0.361-.4-0.7-0.83-1.05-1.24a9.526,9.526,0,0,0-.964-1.28,14.129,14.129,0,0,0,.209,3.54,5.37,5.37,0,0,1-1.6.06,36.577,36.577,0,0,0,0-8,2.618,2.618,0,0,1,.392-0.07,7.963,7.963,0,0,1,2.233.14,2.249,2.249,0,0,1,1.945,2.38,2.1,2.1,0,0,1-.956,1.57c-0.148.1-.312,0.18-0.523,0.31A17.6,17.6,0,0,0,642.455,5199.58Zm-4.3-3.97c1.236-.23,1.949-1.05,1.752-1.99a1.517,1.517,0,0,0-1.906-1.17c0,0.98,0,1.97,0,2.96A0.552,0.552,0,0,0,638.156,5195.61Zm36.622-9.79v-1.56c0.163,0.14.281,0.24,0.391,0.34a2.078,2.078,0,0,0,1.969.48,1.475,1.475,0,0,0,.634-2.52,10.6,10.6,0,0,0-1-.77,11.276,11.276,0,0,1-1.219-.94,2.264,2.264,0,0,1-.577-2.71,2.463,2.463,0,0,1,2.238-1.56,3.575,3.575,0,0,1,2.1.27,3.179,3.179,0,0,1,.028,1.38c-0.584-.24-1.135-0.47-1.6-0.66-0.342.08-.568,0.13-0.929,0.22-0.11.12-.3,0.32-0.435,0.46a1.774,1.774,0,0,0,.847,2.13c0.47,0.35.958,0.67,1.41,1.04a11.454,11.454,0,0,1,.9.91,12.935,12.935,0,0,1,.141,1.41,2.633,2.633,0,0,1-1.885,2.36A4.44,4.44,0,0,1,674.778,5185.82Zm61.387-8.84v1.27a2.484,2.484,0,0,1-.883-0.43,6.568,6.568,0,0,0-.928-0.19,1.335,1.335,0,0,0-1.367,1.27,2.181,2.181,0,0,0,1.141,1.53,9.84,9.84,0,0,1,1.648,1.31,2.64,2.64,0,0,1-1.2,4.36,4.255,4.255,0,0,1-2.952-.26,4.789,4.789,0,0,1-.035-1.55c1.392,1.15,2.284,1.17,3.277.1a1.62,1.62,0,0,0-.714-2.17c-0.535-.38-1.082-0.75-1.586-1.16a2.436,2.436,0,0,1-.569-3.35,2.472,2.472,0,0,1,1.2-.94,3.711,3.711,0,0,1,2.327-.15A2.378,2.378,0,0,1,736.165,5176.98Zm-109.112,20.99a1.324,1.324,0,0,1,.044.2c0,0.26,0,.52,0,0.76-0.4.6-1.088,0.55-1.689,0.83a4.308,4.308,0,0,1,.456.54,3.818,3.818,0,0,1,.235.59c-0.11.29-.218,0.58-0.3,0.8a1.406,1.406,0,0,1-1.859.2,0.943,0.943,0,0,1-.04-0.2,0.383,0.383,0,0,1,.09-0.14c0.277,0.02.571,0.04,0.8,0.05a0.835,0.835,0,0,0,.563-0.8,0.988,0.988,0,0,0-1.121-.65c0.008-.11.014-0.2,0.024-0.33-0.252-.07-0.513-0.14-0.777-0.21a3.888,3.888,0,0,1-2.873-3.65,4.9,4.9,0,0,1,.6-2.51,4.1,4.1,0,0,1,2.849-1.97,6.873,6.873,0,0,1,2.679.2,0.577,0.577,0,0,1,.156.59,2.729,2.729,0,0,0-.011.68,4.6,4.6,0,0,1-.515-0.19,3.959,3.959,0,0,0-1.757-.41,2.854,2.854,0,0,0-2.4,1.67,3.9,3.9,0,0,0-.039,3.03,2.453,2.453,0,0,0,1.768,1.67,3.173,3.173,0,0,0,2.2-.25C626.428,5198.31,626.734,5198.14,627.053,5197.97Zm-2.28,1.74c0-.03-0.006-0.06-0.008-0.09l-0.27.03c0,0.03,0,.06.007,0.09Zm-32.445-8.17h1.729c-0.237.51-.479,0.98-0.684,1.47-0.427,1.02-.838,2.04-1.249,3.07-0.464,1.16-.922,2.32-1.389,3.49h-0.912a10.428,10.428,0,0,1-.793-1.98c-0.47-1.26-.921-2.52-1.365-3.79a8.211,8.211,0,0,0-1.007-1.93c-0.05-.08-0.093-0.16-0.188-0.31a14.1,14.1,0,0,1,2.042-.03,0.4,0.4,0,0,1,.083.15,5.6,5.6,0,0,0,.433,2.27c0.4,1.09.758,2.18,1.136,3.27,0.027,0.08.069,0.15,0.171,0.37C591.012,5195.5,592.021,5193.69,592.328,5191.54ZM737,5199.58h-1.7c-0.091-.4-0.156-0.82-0.284-1.21s-0.324-.78-0.51-1.21h-2.986a7.744,7.744,0,0,0-.722,2.41h-1.735c0.369-.66.745-1.29,1.076-1.94,0.342-.68.641-1.37,0.958-2.05s0.609-1.33.92-1.99c0.319-.68.646-1.35,1.007-2.11a13.936,13.936,0,0,1,1.006,2.05c0.355,0.66.643,1.36,0.959,2.05,0.307,0.66.6,1.33,0.924,1.99S736.625,5198.89,737,5199.58Zm-5.06-3.55c0.742,0.04,1.366.07,2,.1a2.412,2.412,0,0,0-.406-1.25,1.856,1.856,0,0,0-.611-1.11C732.593,5194.53,732.288,5195.23,731.94,5196.03Zm-78.158,3.55h-1.7a8.4,8.4,0,0,0-.879-2.46h-2.853a4.221,4.221,0,0,0-.712,2.48c-0.329,0-.627.01-0.926,0.01-0.275,0-.55-0.01-0.825-0.01a0.588,0.588,0,0,1,0-.2,34.546,34.546,0,0,0,2.542-5.11c0.419-.92.866-1.83,1.342-2.83C651.213,5194.13,652.179,5196.96,653.782,5199.58Zm-5.073-3.52h2.118a15.858,15.858,0,0,0-1.13-2.35C649.363,5194.51,649.068,5195.21,648.709,5196.06Zm-14.946,3.55a8.783,8.783,0,0,0-.83-2.42c-0.908-.03-1.851-0.07-2.855-0.11a4.3,4.3,0,0,0-.758,2.41,4.184,4.184,0,0,1-1.867.06,20.471,20.471,0,0,0,1.938-3.66c0.641-1.42,1.323-2.82,2-4.26a1.085,1.085,0,0,1,.482.59q0.838,1.8,1.666,3.6c0.237,0.51.453,1.04,0.707,1.54,0.358,0.72.742,1.42,1.139,2.17a1.413,1.413,0,0,1-.767.08C634.366,5199.63,634.108,5199.61,633.763,5199.61Zm-1.366-3.51a6.046,6.046,0,0,0-1.018-2.32c-0.172.4-.346,0.78-0.5,1.18a1.931,1.931,0,0,0-.379,1.14H632.4Zm43.85,0.23a3.526,3.526,0,0,0-1.815-.39,9.717,9.717,0,0,0-.05,2.79,7.95,7.95,0,0,0,3.312-.58c-0.233.55-.423,0.99-0.612,1.43h-4.138c0.043-.68.1-1.33,0.12-1.98,0.021-.68.006-1.37,0.006-2.06,0-.66.014-1.32-0.006-1.98s-0.074-1.31-.112-1.96a26.714,26.714,0,0,1,4.122-.03,1.746,1.746,0,0,1-.486,1.21,4.95,4.95,0,0,0-2.152-.4,8.6,8.6,0,0,0-.061,2.66h2.5A4.782,4.782,0,0,1,676.247,5196.33Zm37.738,3.25a10.382,10.382,0,0,0,.238-2.97c0-1.02.012-2.04-.008-3.05-0.009-.47-0.086-0.94-0.123-1.4-0.014-.19,0-0.37,0-0.55a26.243,26.243,0,0,1,4.195-.04,5.507,5.507,0,0,1-.519,1.15,5.033,5.033,0,0,0-2.3-.29v2.62h2.558a3.853,3.853,0,0,1-.727,1.23,4.121,4.121,0,0,0-1.806-.33c-0.042.91-.011,1.8-0.02,2.71a2.847,2.847,0,0,0,1.663-.06,12.084,12.084,0,0,0,1.623-.4l-0.524,1.38h-4.251Zm-50.932-1.39a10.457,10.457,0,0,1-.588,1.33,27.313,27.313,0,0,1-4.167.03,29.749,29.749,0,0,0-.021-7.92,19.389,19.389,0,0,1,4.191-.03,4.874,4.874,0,0,1-.442,1.19,4.324,4.324,0,0,0-2.316-.39c-0.092.86-.014,1.7-0.048,2.56a3.007,3.007,0,0,0,1.257.1c0.415,0.02.832,0.01,1.29,0.01a3.685,3.685,0,0,1-.614,1.26,3.513,3.513,0,0,0-1.9-.37c-0.051.91-.016,1.82-0.026,2.73a3.783,3.783,0,0,0,1.717-.08C661.919,5198.51,662.443,5198.35,663.053,5198.19Zm4.247,1.21v-1.37a2.184,2.184,0,0,0,2.232.66c0.183-.18.458-0.45,0.66-0.66a1.5,1.5,0,0,0-.713-1.73,18.224,18.224,0,0,1-1.449-1.11,1.914,1.914,0,0,1-.689-2.08,2.146,2.146,0,0,1,1.7-1.6,3.027,3.027,0,0,1,2.143.22v1.22a2.274,2.274,0,0,0-1.881-.53c-0.113.07-.308,0.2-0.493,0.32a1.22,1.22,0,0,0,.37,1.84c0.553,0.4,1.108.78,1.625,1.23a2.252,2.252,0,0,1-.78,3.75A3.211,3.211,0,0,1,667.3,5199.4Zm32.957-7.86h1.56c-0.277,2.4-.092,4.77-0.158,7.19a8.254,8.254,0,0,0,3.121-.58,9.815,9.815,0,0,1-.623,1.43H700.28a24.2,24.2,0,0,0,.133-4.02A21,21,0,0,0,700.257,5191.54Zm-55.48,8.04h-1.506a0.342,0.342,0,0,1-.075-0.14,22.83,22.83,0,0,0,.139-3.61c0.013-.35.063-0.7,0.093-1.05a1.875,1.875,0,0,0,.013-0.28c-0.039-.66-0.072-1.32-0.126-1.97-0.024-.31-0.091-0.6-0.145-0.94a6.123,6.123,0,0,1,1.661-.06,29.915,29.915,0,0,0-.236,5.87C644.591,5198.1,644.708,5198.8,644.777,5199.58Zm81.657,0.04a20.589,20.589,0,0,0,.191-4.06,20.334,20.334,0,0,0-.183-4h1.568a24.883,24.883,0,0,0-.126,4,21.026,21.026,0,0,0,.152,3.98A8.178,8.178,0,0,1,726.434,5199.62Zm-129.5-.05h-1.657a30.025,30.025,0,0,0-.025-8.04c0.311,0,.585-0.01.86-0.02h0.815a15.569,15.569,0,0,0-.269,3.86c0,0.54.009,1.09,0,1.63A8.115,8.115,0,0,0,596.931,5199.57Z" transform="translate(-529 -5170)"/>
</svg>
